<svg width="387" height="517" viewBox="0 0 387 517" fill="none" xmlns="http://www.w3.org/2000/svg">
<path fill-rule="evenodd" clip-rule="evenodd" d="M145.04 251.573C147.667 256.282 148.505 261.781 147.398 267.058C146.291 272.336 143.314 277.036 139.016 280.292C134.718 283.548 129.388 285.141 124.008 284.778C118.628 284.416 113.561 282.121 109.739 278.317C105.917 274.513 103.599 269.456 103.21 264.078C102.822 258.7 104.391 253.363 107.626 249.049C110.862 244.736 115.548 241.737 120.82 240.606C126.092 239.474 131.596 240.285 136.317 242.891L121.205 258.043C120.347 258.903 119.763 259.997 119.526 261.188C119.289 262.379 119.411 263.613 119.876 264.735C120.34 265.857 121.127 266.816 122.136 267.491C123.145 268.166 124.332 268.527 125.546 268.528C127.172 268.513 128.729 267.867 129.887 266.726L145.04 251.573Z" fill="white"/>
<path fill-rule="evenodd" clip-rule="evenodd" d="M148.026 125.842C148.028 129.624 147.07 133.344 145.241 136.654L130.088 121.542C129.525 120.938 128.847 120.454 128.094 120.118C127.34 119.783 126.527 119.602 125.702 119.587C124.877 119.573 124.058 119.725 123.293 120.034C122.528 120.343 121.833 120.802 121.25 121.386C120.666 121.969 120.206 122.664 119.897 123.429C119.588 124.194 119.437 125.013 119.451 125.838C119.466 126.663 119.646 127.476 119.982 128.23C120.318 128.983 120.802 129.662 121.405 130.224L136.517 145.336C133.231 147.191 129.521 148.165 125.747 148.162C121.33 148.17 117.011 146.868 113.335 144.42C109.659 141.972 106.792 138.489 105.097 134.412C103.401 130.334 102.953 125.845 103.81 121.513C104.666 117.18 106.789 113.199 109.909 110.074C113.028 106.948 117.005 104.818 121.336 103.954C125.667 103.089 130.157 103.529 134.238 105.217C138.318 106.905 141.807 109.766 144.261 113.437C146.715 117.109 148.026 121.426 148.026 125.842Z" fill="white"/>
<path fill-rule="evenodd" clip-rule="evenodd" d="M206.688 181.13C203.713 178.155 199.8 176.304 195.613 175.891C191.427 175.478 187.226 176.529 183.728 178.866C180.23 181.202 177.65 184.68 176.428 188.705C175.207 192.731 175.418 197.055 177.027 200.942C178.637 204.829 181.544 208.037 185.254 210.021C188.963 212.005 193.246 212.641 197.372 211.821C201.498 211.001 205.213 208.776 207.882 205.525C210.551 202.273 212.011 198.197 212.012 193.99C211.999 189.17 210.086 184.549 206.688 181.13ZM193.787 202.181C192.167 202.181 190.584 201.7 189.237 200.8C187.89 199.9 186.84 198.621 186.22 197.124C185.6 195.628 185.438 193.981 185.754 192.392C186.07 190.803 186.85 189.344 187.995 188.198C189.141 187.053 190.6 186.273 192.189 185.957C193.778 185.641 195.425 185.803 196.922 186.423C198.418 187.043 199.698 188.092 200.598 189.439C201.498 190.786 201.978 192.37 201.978 193.99C201.994 195.076 201.794 196.154 201.39 197.162C200.986 198.17 200.385 199.088 199.623 199.861C198.861 200.635 197.952 201.249 196.95 201.669C195.948 202.088 194.873 202.304 193.787 202.304V202.181Z" fill="white"/>
<path fill-rule="evenodd" clip-rule="evenodd" d="M239.77 262.39C239.749 258.606 240.708 254.881 242.555 251.578L257.708 266.731C258.86 267.882 260.421 268.528 262.049 268.528C263.677 268.528 265.238 267.882 266.39 266.731C266.964 266.164 267.421 265.488 267.732 264.742C268.043 263.997 268.204 263.198 268.204 262.39C268.204 261.582 268.043 260.783 267.732 260.038C267.421 259.293 266.964 258.617 266.39 258.049L251.237 242.896C255.51 240.524 260.445 239.623 265.281 240.332C270.117 241.042 274.586 243.321 277.998 246.82C281.411 250.319 283.578 254.844 284.166 259.696C284.754 264.548 283.73 269.459 281.252 273.672C278.774 277.884 274.979 281.165 270.452 283.009C265.926 284.853 260.919 285.156 256.202 283.874C251.486 282.591 247.322 279.793 244.353 275.911C241.383 272.029 239.773 267.278 239.77 262.39Z" fill="white"/>
<path fill-rule="evenodd" clip-rule="evenodd" d="M257.707 121.55L242.554 136.703C240.735 133.389 239.778 129.671 239.77 125.891C239.778 121.014 241.389 116.276 244.355 112.405C247.321 108.534 251.477 105.745 256.183 104.468C260.89 103.19 265.885 103.496 270.401 105.336C274.917 107.177 278.703 110.451 281.175 114.654C283.648 118.858 284.67 123.757 284.085 128.598C283.499 133.44 281.339 137.954 277.936 141.447C274.533 144.94 270.076 147.218 265.252 147.929C260.428 148.641 255.503 147.747 251.237 145.385L266.39 130.232C266.993 129.67 267.477 128.991 267.813 128.238C268.149 127.484 268.329 126.671 268.344 125.846C268.358 125.021 268.207 124.202 267.898 123.437C267.589 122.672 267.129 121.977 266.546 121.394C265.962 120.81 265.267 120.351 264.502 120.042C263.737 119.733 262.918 119.581 262.093 119.595C261.268 119.61 260.455 119.791 259.701 120.126C258.948 120.462 258.27 120.946 257.707 121.55Z" fill="white"/>
<path fill-rule="evenodd" clip-rule="evenodd" d="M193.779 0.937504C142.545 0.937504 93.4089 21.2903 57.1806 57.5185C20.9524 93.7467 0.599617 142.883 0.599617 194.117V203.537C0.586707 249.551 16.2442 294.198 44.9937 330.125L193.779 516.138L342.606 330.125C371.355 294.198 387.013 249.551 387 203.537V194.117C387 168.745 382.002 143.621 372.291 120.181C362.58 96.7408 348.347 75.443 330.404 57.504C312.462 39.5651 291.161 25.3365 267.719 15.6307C244.276 5.9249 219.151 0.932125 193.779 0.937504ZM227.935 178.759V209.516C227.923 212.352 227.28 215.15 226.051 217.707L242.678 234.088C249.581 229.206 258.058 227.078 266.448 228.123C274.838 229.167 282.536 233.308 288.031 239.733C293.526 246.159 296.422 254.405 296.152 262.856C295.882 271.306 292.465 279.351 286.571 285.412C280.677 291.474 272.732 295.115 264.292 295.622C255.853 296.129 247.528 293.464 240.951 288.151C234.374 282.839 230.019 275.261 228.74 266.903C227.461 258.546 229.35 250.012 234.037 242.975L217.655 226.389C215.1 227.622 212.301 228.265 209.465 228.273H178.422C175.584 228.271 172.784 227.627 170.231 226.389L153.604 242.975C158.491 249.964 160.587 258.527 159.48 266.983C158.373 275.438 154.143 283.174 147.622 288.669C141.101 294.164 132.76 297.02 124.24 296.677C115.719 296.334 107.635 292.817 101.576 286.815C95.5179 280.814 91.9236 272.764 91.4999 264.246C91.0762 255.729 93.8538 247.362 99.2867 240.789C104.72 234.216 112.415 229.913 120.859 228.726C129.304 227.539 137.887 229.554 144.921 234.375L161.549 217.993C160.301 215.444 159.656 212.641 159.665 209.803V178.759C159.647 175.92 160.292 173.115 161.549 170.569L144.921 153.941C139.242 157.907 132.477 160.023 125.55 160.003C117.911 160.014 110.488 157.463 104.469 152.76C98.4499 148.056 94.1813 141.47 92.3457 134.054C90.5101 126.639 91.2134 118.822 94.3433 111.853C97.4731 104.885 102.849 99.1665 109.611 95.6126C116.373 92.0587 124.132 90.8744 131.646 92.2489C139.161 93.6234 145.998 97.4774 151.064 103.195C156.13 108.912 159.134 116.163 159.594 123.789C160.054 131.414 157.945 138.974 153.604 145.259L170.231 161.886C172.778 160.63 175.582 159.985 178.422 160.003H209.178C212.017 159.99 214.821 160.635 217.369 161.886L233.75 145.259C228.904 138.246 226.855 129.673 228.007 121.227C229.159 112.78 233.429 105.069 239.976 99.6094C246.524 94.1499 254.876 91.3362 263.392 91.7213C271.909 92.1063 279.973 95.6622 286.001 101.69C292.03 107.718 295.585 115.783 295.97 124.299C296.355 132.816 293.542 141.168 288.082 147.716C282.623 154.263 274.912 158.532 266.465 159.684C258.018 160.836 249.446 158.788 242.433 153.941L225.846 170.569C227.155 173.105 227.87 175.906 227.935 178.759Z" fill="white"/>
</svg>
