<svg xmlns="http://www.w3.org/2000/svg" viewBox="0 0 1000 1000"><defs><style>.a{fill:#fefefe;}</style></defs><path class="a" d="M833.36,666.64a165.44,165.44,0,0,0-94.72,29.56l-81.12-81.12a91,91,0,0,0,9.16-40V424.88a91,91,0,0,0-9.16-40l81.08-81.08a166.79,166.79,0,1,0-42.4-42.44l-81.12,81.12a90.52,90.52,0,0,0-40-9.2H424.88a90.52,90.52,0,0,0-40,9.2L303.8,261.4a166,166,0,0,0,29.52-94.76C333.32,74.64,258.68,0,166.64,0A166.68,166.68,0,0,0,0,166.64c0,92.08,74.64,166.72,166.64,166.72a165.44,165.44,0,0,0,94.72-29.56l81.12,81.12a91,91,0,0,0-9.16,40V575.12a91,91,0,0,0,9.16,40L261.36,696.2a165.44,165.44,0,0,0-94.72-29.56C74.64,666.64,0,741.28,0,833.32A166.66,166.66,0,1,0,303.8,738.6l81.12-81.12a90.52,90.52,0,0,0,40,9.2H575.12a90.52,90.52,0,0,0,40-9.2L696.2,738.6A166.67,166.67,0,1,0,1000,833.32C1000,741.28,925.36,666.64,833.36,666.64Zm0-608.76a108.82,108.82,0,1,1-52.76,204l74-74a30,30,0,0,0-42.44-42.4l-74,74a108.84,108.84,0,0,1,95.2-161.6ZM261.84,219.44l-74-74a30,30,0,0,0-42.44,42.4l74,74a108.86,108.86,0,1,1,42.44-42.4Zm-95.2,722.72a108.82,108.82,0,1,1,52.76-204l-74,74a30,30,0,1,0,42.44,42.4l74-74a107.49,107.49,0,0,1,13.68,52.76A108.84,108.84,0,0,1,166.64,942.16Zm396.2-379.32a88.9,88.9,0,0,1-151.28-71.92c4.12-41.6,37.76-75.24,79.36-79.36a88.89,88.89,0,0,1,71.92,151.28ZM833.36,942.16A108.84,108.84,0,0,1,724.48,833.32a107.49,107.49,0,0,1,13.68-52.76l74,74a30,30,0,0,0,42.44-42.4l-74-74a108.83,108.83,0,1,1,52.76,204Z"/><circle class="a" cx="500" cy="500" r="40"/></svg>